<mxfile host="app.diagrams.net" modified="2020-05-22T02:41:14.255Z" agent="5.0 (Windows NT 10.0; Win64; x64) AppleWebKit/537.36 (KHTML, like Gecko) Chrome/81.0.4044.138 Safari/537.36" etag="Pyn16t_eBXEC8avy9IHZ" version="13.1.2" type="github">
  <diagram id="chyuBHoh4l87bvR5lXpy" name="Page-1">
    <mxGraphModel dx="1422" dy="713" grid="1" gridSize="10" guides="1" tooltips="1" connect="1" arrows="1" fold="1" page="1" pageScale="1" pageWidth="827" pageHeight="1169" math="0" shadow="0">
      <root>
        <mxCell id="0" />
        <mxCell id="1" parent="0" />
        <mxCell id="nx30veJoHJvd5V81R-aq-1" style="rounded=0;orthogonalLoop=1;jettySize=auto;html=1;exitX=1;exitY=0.5;exitDx=0;exitDy=0;entryX=0;entryY=0;entryDx=50;entryDy=50;entryPerimeter=0;" parent="1" source="nx30veJoHJvd5V81R-aq-3" target="nx30veJoHJvd5V81R-aq-4" edge="1">
          <mxGeometry relative="1" as="geometry" />
        </mxCell>
        <mxCell id="nx30veJoHJvd5V81R-aq-2" style="edgeStyle=none;rounded=0;orthogonalLoop=1;jettySize=auto;html=1;exitX=1;exitY=0.5;exitDx=0;exitDy=0;entryX=0;entryY=0;entryDx=50;entryDy=50;entryPerimeter=0;" parent="1" source="nx30veJoHJvd5V81R-aq-3" target="nx30veJoHJvd5V81R-aq-5" edge="1">
          <mxGeometry relative="1" as="geometry" />
        </mxCell>
        <mxCell id="nx30veJoHJvd5V81R-aq-3" value="Director&lt;br&gt;Server" style="whiteSpace=wrap;html=1;aspect=fixed;fillColor=#f8cecc;strokeColor=#b85450;" parent="1" vertex="1">
          <mxGeometry x="330" y="245" width="80" height="80" as="geometry" />
        </mxCell>
        <mxCell id="nx30veJoHJvd5V81R-aq-4" value="" style="shape=cube;whiteSpace=wrap;html=1;boundedLbl=1;backgroundOutline=1;darkOpacity=0.05;darkOpacity2=0.1;rotation=90;fillColor=#dae8fc;strokeColor=#6c8ebf;" parent="1" vertex="1">
          <mxGeometry x="590" y="155" width="80" height="50" as="geometry" />
        </mxCell>
        <mxCell id="nx30veJoHJvd5V81R-aq-5" value="" style="shape=cube;whiteSpace=wrap;html=1;boundedLbl=1;backgroundOutline=1;darkOpacity=0.05;darkOpacity2=0.1;rotation=90;fillColor=#dae8fc;strokeColor=#6c8ebf;" parent="1" vertex="1">
          <mxGeometry x="590" y="340" width="80" height="50" as="geometry" />
        </mxCell>
        <mxCell id="nx30veJoHJvd5V81R-aq-6" value="RS1" style="text;html=1;strokeColor=none;fillColor=none;align=center;verticalAlign=middle;whiteSpace=wrap;rounded=0;" parent="1" vertex="1">
          <mxGeometry x="610" y="225" width="40" height="20" as="geometry" />
        </mxCell>
        <mxCell id="nx30veJoHJvd5V81R-aq-7" value="RS2" style="text;html=1;strokeColor=none;fillColor=none;align=center;verticalAlign=middle;whiteSpace=wrap;rounded=0;" parent="1" vertex="1">
          <mxGeometry x="610" y="410" width="40" height="20" as="geometry" />
        </mxCell>
        <mxCell id="nx30veJoHJvd5V81R-aq-8" value="" style="edgeStyle=orthogonalEdgeStyle;rounded=0;orthogonalLoop=1;jettySize=auto;html=1;entryX=0;entryY=0.5;entryDx=0;entryDy=0;exitX=1;exitY=1;exitDx=0;exitDy=0;" parent="1" source="nx30veJoHJvd5V81R-aq-9" target="nx30veJoHJvd5V81R-aq-3" edge="1">
          <mxGeometry relative="1" as="geometry">
            <mxPoint x="130" y="275" as="targetPoint" />
            <Array as="points">
              <mxPoint x="50" y="285" />
            </Array>
          </mxGeometry>
        </mxCell>
        <mxCell id="nx30veJoHJvd5V81R-aq-9" value="" style="rounded=0;whiteSpace=wrap;html=1;fillColor=#d5e8d4;strokeColor=#82b366;" parent="1" vertex="1">
          <mxGeometry x="47" y="240" width="80" height="46" as="geometry" />
        </mxCell>
        <mxCell id="nx30veJoHJvd5V81R-aq-10" value="" style="shape=parallelogram;perimeter=parallelogramPerimeter;whiteSpace=wrap;html=1;fillColor=#d5e8d4;strokeColor=#82b366;" parent="1" vertex="1">
          <mxGeometry x="27" y="286" width="100" height="20" as="geometry" />
        </mxCell>
        <mxCell id="nx30veJoHJvd5V81R-aq-11" value="LB" style="text;html=1;strokeColor=none;fillColor=none;align=center;verticalAlign=middle;whiteSpace=wrap;rounded=0;dashed=1;" parent="1" vertex="1">
          <mxGeometry x="350" y="325" width="40" height="20" as="geometry" />
        </mxCell>
        <mxCell id="nx30veJoHJvd5V81R-aq-12" value="VIP" style="text;html=1;strokeColor=none;fillColor=none;align=center;verticalAlign=middle;whiteSpace=wrap;rounded=0;" parent="1" vertex="1">
          <mxGeometry x="290" y="253" width="40" height="20" as="geometry" />
        </mxCell>
        <mxCell id="nx30veJoHJvd5V81R-aq-13" value="DIP" style="text;html=1;strokeColor=none;fillColor=none;align=center;verticalAlign=middle;whiteSpace=wrap;rounded=0;" parent="1" vertex="1">
          <mxGeometry x="410" y="240" width="40" height="20" as="geometry" />
        </mxCell>
        <mxCell id="nx30veJoHJvd5V81R-aq-14" value="RIP1" style="text;html=1;strokeColor=none;fillColor=none;align=center;verticalAlign=middle;whiteSpace=wrap;rounded=0;" parent="1" vertex="1">
          <mxGeometry x="570" y="170" width="40" height="20" as="geometry" />
        </mxCell>
        <mxCell id="nx30veJoHJvd5V81R-aq-15" value="RIP2" style="text;html=1;strokeColor=none;fillColor=none;align=center;verticalAlign=middle;whiteSpace=wrap;rounded=0;" parent="1" vertex="1">
          <mxGeometry x="570" y="380" width="40" height="20" as="geometry" />
        </mxCell>
        <mxCell id="nx30veJoHJvd5V81R-aq-16" value="CIP" style="text;html=1;strokeColor=none;fillColor=none;align=center;verticalAlign=middle;whiteSpace=wrap;rounded=0;" parent="1" vertex="1">
          <mxGeometry x="127" y="260" width="40" height="20" as="geometry" />
        </mxCell>
        <mxCell id="nx30veJoHJvd5V81R-aq-17" value="CIP" style="rounded=0;whiteSpace=wrap;html=1;strokeColor=#FF0000;" parent="1" vertex="1">
          <mxGeometry x="60" y="190" width="50" height="30" as="geometry" />
        </mxCell>
        <mxCell id="nx30veJoHJvd5V81R-aq-18" value="VIP" style="rounded=0;whiteSpace=wrap;html=1;strokeColor=#FF0000;" parent="1" vertex="1">
          <mxGeometry x="110" y="190" width="50" height="30" as="geometry" />
        </mxCell>
        <mxCell id="nx30veJoHJvd5V81R-aq-19" value="&lt;font color=&quot;#ff0000&quot;&gt;DIP&lt;/font&gt;" style="rounded=0;whiteSpace=wrap;html=1;strokeColor=#FF0000;" parent="1" vertex="1">
          <mxGeometry x="400" y="190" width="50" height="30" as="geometry" />
        </mxCell>
        <mxCell id="nx30veJoHJvd5V81R-aq-20" value="&lt;font color=&quot;#ff0000&quot;&gt;RIP1&lt;/font&gt;" style="rounded=0;whiteSpace=wrap;html=1;strokeColor=#FF0000;" parent="1" vertex="1">
          <mxGeometry x="450" y="190" width="50" height="30" as="geometry" />
        </mxCell>
        <mxCell id="nx30veJoHJvd5V81R-aq-21" value="" style="endArrow=classic;html=1;strokeColor=#FF0000;" parent="1" edge="1">
          <mxGeometry width="50" height="50" relative="1" as="geometry">
            <mxPoint x="90" y="150" as="sourcePoint" />
            <mxPoint x="540" y="150" as="targetPoint" />
          </mxGeometry>
        </mxCell>
        <mxCell id="nx30veJoHJvd5V81R-aq-22" value="" style="endArrow=classic;html=1;strokeColor=#3399FF;" parent="1" edge="1">
          <mxGeometry width="50" height="50" relative="1" as="geometry">
            <mxPoint x="490" y="410" as="sourcePoint" />
            <mxPoint x="70" y="410" as="targetPoint" />
          </mxGeometry>
        </mxCell>
        <mxCell id="nx30veJoHJvd5V81R-aq-23" value="RIP1" style="rounded=0;whiteSpace=wrap;html=1;strokeColor=#3399FF;" parent="1" vertex="1">
          <mxGeometry x="380" y="360" width="50" height="30" as="geometry" />
        </mxCell>
        <mxCell id="nx30veJoHJvd5V81R-aq-24" value="DIP" style="rounded=0;whiteSpace=wrap;html=1;strokeColor=#3399FF;" parent="1" vertex="1">
          <mxGeometry x="430" y="360" width="50" height="30" as="geometry" />
        </mxCell>
        <mxCell id="nx30veJoHJvd5V81R-aq-25" value="&lt;font color=&quot;#3399ff&quot;&gt;VIP&lt;/font&gt;" style="rounded=0;whiteSpace=wrap;html=1;strokeColor=#3399FF;" parent="1" vertex="1">
          <mxGeometry x="80" y="360" width="50" height="30" as="geometry" />
        </mxCell>
        <mxCell id="nx30veJoHJvd5V81R-aq-26" value="&lt;font color=&quot;#3399ff&quot;&gt;CIP&lt;/font&gt;" style="rounded=0;whiteSpace=wrap;html=1;strokeColor=#3399FF;" parent="1" vertex="1">
          <mxGeometry x="130" y="360" width="50" height="30" as="geometry" />
        </mxCell>
        <mxCell id="nx30veJoHJvd5V81R-aq-27" value="SNAT &amp;amp; DNAT" style="text;html=1;strokeColor=none;fillColor=none;align=center;verticalAlign=middle;whiteSpace=wrap;rounded=0;" parent="1" vertex="1">
          <mxGeometry x="260" y="170" width="90" height="20" as="geometry" />
        </mxCell>
        <mxCell id="nx30veJoHJvd5V81R-aq-28" value="SNAT &amp;amp; DNAT" style="text;html=1;strokeColor=none;fillColor=none;align=center;verticalAlign=middle;whiteSpace=wrap;rounded=0;" parent="1" vertex="1">
          <mxGeometry x="250" y="380" width="90" height="20" as="geometry" />
        </mxCell>
        <mxCell id="FkArIqDUuKB70V9MHei6-1" value="&lt;font color=&quot;#ff8000&quot; style=&quot;font-size: 14px&quot;&gt;公众号@Linux云计算网络&lt;/font&gt;" style="text;html=1;strokeColor=none;fillColor=none;align=center;verticalAlign=middle;whiteSpace=wrap;rounded=0;" vertex="1" parent="1">
          <mxGeometry x="150" y="306" width="170" height="20" as="geometry" />
        </mxCell>
      </root>
    </mxGraphModel>
  </diagram>
</mxfile>
